<?xml version="1.0" encoding="UTF-8"?>
<svg version="1.1" xmlns="http://www.w3.org/2000/svg" width="406" height="130">
<path d="M0 0 C5.21712705 3.92675021 7.87270297 8.41796024 9.08203125 14.81640625 C9.52443715 21.80914194 9.33310819 28.819085 9.08203125 35.81640625 C9.736875 35.79545898 10.39171875 35.77451172 11.06640625 35.75292969 C14.07145453 35.66910242 17.07625589 35.6175373 20.08203125 35.56640625 C21.11199219 35.53289063 22.14195313 35.499375 23.203125 35.46484375 C31.04340377 35.36496759 36.37395852 36.56699757 42.32421875 41.78125 C42.86304687 42.43222656 43.401875 43.08320312 43.95703125 43.75390625 C44.51132813 44.40230469 45.065625 45.05070312 45.63671875 45.71875 C48.65389479 50.09773253 49.34167266 53.72446701 49.26953125 59.00390625 C49.26308594 60.04933594 49.25664063 61.09476562 49.25 62.171875 C49.08203125 64.81640625 49.08203125 64.81640625 48.08203125 66.81640625 C47.42203125 66.81640625 46.76203125 66.81640625 46.08203125 66.81640625 C45.64890625 66.36265625 45.21578125 65.90890625 44.76953125 65.44140625 C43.14470769 63.60399909 43.14470769 63.60399909 40.51953125 63.19140625 C38.08203125 61.81640625 38.08203125 61.81640625 37.45703125 59.83203125 C37.16334722 58.22725778 36.88093424 56.62038396 36.609375 55.01171875 C35.89172149 52.02415376 34.5070668 50.63518291 32.08203125 48.81640625 C29.45181277 47.50129701 27.35208364 47.60363711 24.41015625 47.5 C23.270625 47.45810547 22.13109375 47.41621094 20.95703125 47.37304688 C19.16265625 47.31407227 19.16265625 47.31407227 17.33203125 47.25390625 C16.15125 47.21072266 14.97046875 47.16753906 13.75390625 47.12304688 C8.52649182 46.93761494 3.3132343 46.79342807 -1.91796875 46.81640625 C-1.93255127 45.87321533 -1.94713379 44.93002441 -1.9621582 43.95825195 C-2.02336481 40.44481964 -2.09754383 36.93215179 -2.18041992 33.41918945 C-2.21358791 31.90139004 -2.24164507 30.38346969 -2.2644043 28.86547852 C-2.29810153 26.67802606 -2.35042079 24.49167361 -2.40625 22.3046875 C-2.43243408 20.99024658 -2.45861816 19.67580566 -2.4855957 18.3215332 C-2.93699877 14.66213525 -3.73624475 12.74760068 -5.91796875 9.81640625 C-8.91026178 7.48906723 -12.14989571 7.40148111 -15.8828125 7.4921875 C-19.24589283 8.02795653 -21.37414574 9.64485002 -23.91796875 11.81640625 C-25.08094185 15.30532556 -25.11190541 18.17576876 -25.19921875 21.85546875 C-25.21762817 22.53692963 -25.2360376 23.2183905 -25.25500488 23.92050171 C-25.33363561 26.83388711 -25.40163606 29.74749606 -25.47021484 32.66113281 C-25.52181398 34.78853226 -25.57909021 36.9157255 -25.63671875 39.04296875 C-25.6821582 40.95456787 -25.6821582 40.95456787 -25.72851562 42.90478516 C-25.91796875 45.81640625 -25.91796875 45.81640625 -26.91796875 46.81640625 C-28.77084377 46.88867127 -30.62630753 46.90021845 -32.48046875 46.87890625 C-33.49238281 46.86988281 -34.50429688 46.86085937 -35.546875 46.8515625 C-36.32933594 46.83996094 -37.11179688 46.82835937 -37.91796875 46.81640625 C-37.46082874 44.14975622 -36.93894711 41.86358864 -35.8359375 39.3828125 C-34.71676503 36.25389202 -34.88506996 34.04559833 -35.23046875 30.75390625 C-35.37935547 29.22056641 -35.37935547 29.22056641 -35.53125 27.65625 C-35.85263348 25.29619149 -36.32965017 23.11663545 -36.91796875 20.81640625 C-37.44825315 14.45299341 -36.663055 10.07211553 -32.91796875 4.81640625 C-23.79076026 -5.26114065 -11.55162139 -7.12859731 0 0 Z " fill="#118DA9" transform="translate(77.91796875,6.18359375)"/>
<path d="M0 0 C2.96404505 2.80804268 5.44499019 5.18315774 7 9 C6.0409375 10.0209375 6.0409375 10.0209375 5.0625 11.0625 C2.59113292 14.58232584 2.07518284 16.71457806 2 21 C3.54157495 25.21904722 5.11313572 27.75062542 9 30 C12.46728127 30.4891811 12.46728127 30.4891811 16.35546875 30.4765625 C17.40883171 30.49993179 17.40883171 30.49993179 18.48347473 30.52377319 C20.71813926 30.57116947 22.95249259 30.59902552 25.1875 30.625 C27.43300169 30.66146931 29.67832604 30.70202579 31.92366028 30.74765015 C33.95311495 30.78730671 35.98279151 30.81507156 38.01245117 30.84228516 C41 31 41 31 42 32 C42.1223387 34.30511864 42.17983877 36.61372172 42.2109375 38.921875 C42.23902065 40.35417781 42.2676852 41.78646932 42.296875 43.21875 C42.33804455 45.48111481 42.37492136 47.74327193 42.40136719 50.00585938 C42.42908094 52.18664506 42.47496653 54.36646482 42.5234375 56.546875 C42.5531665 58.50898926 42.5531665 58.50898926 42.58349609 60.51074219 C43.02118564 64.17748255 43.7770891 66.08675663 46 69 C49.65669358 71.07542068 52.84235546 71.50909933 57 71 C60.6578218 68.96006092 62.66946174 67.49580738 65 64 C65.3626117 62.07255631 65.3626117 62.07255631 65.4140625 59.98828125 C65.45273438 59.23095703 65.49140625 58.47363281 65.53125 57.69335938 C65.5621875 56.90767578 65.593125 56.12199219 65.625 55.3125 C65.66367188 54.51521484 65.70234375 53.71792969 65.7421875 52.89648438 C65.83632494 50.93136525 65.91924632 48.9657146 66 47 C67.73702602 48.46378597 69.46385753 49.93652888 71.17578125 51.4296875 C72.5602225 52.6214335 73.98959137 53.76122413 75.4375 54.875 C77.34483829 57.46898008 77.6223973 59.51999805 77.44921875 62.71484375 C76.31919495 68.46322568 73.5219724 74.01332034 69.125 77.9375 C62.42769538 82.35772105 56.93080501 83.91114427 49 83 C41.90665009 80.92091468 35.95491185 76.45382809 32.30859375 70.01171875 C30.28090535 64.89965927 30.43043288 59.49078186 30.3125 54.0625 C30.27833984 52.99708984 30.24417969 51.93167969 30.20898438 50.83398438 C30.12701774 48.22276154 30.05770113 45.61185279 30 43 C29.34515625 42.9906543 28.6903125 42.98130859 28.015625 42.97167969 C25.00969095 42.9175474 22.00524225 42.83398611 19 42.75 C17.97003906 42.73582031 16.94007812 42.72164062 15.87890625 42.70703125 C8.33947054 42.46692183 2.7620401 41.24639368 -3.0234375 36.25390625 C-3.46945313 35.69574219 -3.91546875 35.13757813 -4.375 34.5625 C-4.83648438 34.00691406 -5.29796875 33.45132813 -5.7734375 32.87890625 C-9.98439281 26.42836644 -9.81799877 19.46114028 -9 12 C-7.1383438 6.66720793 -4.64316018 3.20457423 0 0 Z " fill="#7DBFB6" transform="translate(10,46)"/>
<path d="M0 0 C4.67684139 0.60625722 7.8540116 2.31440581 11.375 5.4375 C16.21338044 12.31382291 17.19277161 20.20526581 16.375 28.4375 C14.875 31.1875 14.875 31.1875 13.375 33.4375 C13.20800768 36.56271833 13.20800768 36.56271833 13.375 39.4375 C13.045 40.0975 12.715 40.7575 12.375 41.4375 C15.32341193 45.80114965 18.36011081 47.98622802 23.375 49.4375 C26.10352447 49.69657744 28.76678144 49.59250294 31.5 49.4375 C36.60385621 49.15130246 40.19445784 49.15864341 44.375 52.4375 C48.17036674 56.39139557 50.79068921 61.10850061 53.3125 65.9375 C57.16276159 73.14798989 61.60832003 79.56006175 69.33984375 82.8671875 C73.0012612 83.89322771 75.82493791 83.82995154 79.375 82.4375 C85.94575094 78.41459126 89.85536902 72.64151535 92.375 65.4375 C92.8008991 62.01595544 92.8008991 62.01595544 92.375 59.4375 C88.48755746 57.49377873 83.59993578 57.67924215 79.29101562 57.27539062 C75.56601133 56.89704584 72.07045176 56.43691356 68.484375 55.3359375 C65.4069937 54.1959951 65.4069937 54.1959951 62.3125 55 C58.37370832 55.58662855 56.62865632 54.65590203 53.375 52.4375 C51.55421276 49.50840749 51.35942547 47.81907601 51.5 44.375 C52.56228488 40.80875791 53.23915077 39.475802 56.375 37.4375 C60.70551843 36.65736984 64.13876386 36.63394651 67.875 39.0625 C69.68461728 41.92772737 70.1598542 44.0668824 70.375 47.4375 C70.045 48.4275 69.715 49.4175 69.375 50.4375 C69.94420166 50.48237549 70.51340332 50.52725098 71.09985352 50.57348633 C73.71357798 50.78662949 76.32536884 51.01817564 78.9375 51.25 C79.83275391 51.32025391 80.72800781 51.39050781 81.65039062 51.46289062 C87.13814824 51.96543253 91.50716769 52.7956935 96.375 55.4375 C98.85133379 59.15200068 98.57409635 60.64777757 97.97265625 64.90625 C95.82037582 74.02179065 90.14870421 81.96571512 82.625 87.4375 C76.09168844 89.44774971 69.80833586 89.56616225 63.625 86.4375 C55.15654947 80.98171948 50.67353677 72.92363594 45.83813477 64.34082031 C45.43264404 63.6237793 45.02715332 62.90673828 44.609375 62.16796875 C44.25069336 61.52239014 43.89201172 60.87681152 43.52246094 60.21166992 C41.53634249 57.14079274 40.18251254 55.63994362 36.5859375 54.73828125 C33.33492844 54.43374634 30.25986051 54.47897719 27 54.625 C20.28610147 54.66323405 15.67679115 53.60980915 10.78125 48.90625 C7.375 45.04583333 7.375 45.04583333 7.375 42.4375 C6.4159375 42.251875 6.4159375 42.251875 5.4375 42.0625 C4.756875 41.85625 4.07625 41.65 3.375 41.4375 C3.045 40.7775 2.715 40.1175 2.375 39.4375 C0.42391332 38.71181598 0.42391332 38.71181598 -1.875 38.125 C-9.48838261 35.69160872 -12.81245426 30.08012776 -16.625 23.4375 C-18.48282969 19.72184062 -18.2029523 15.29545708 -16.98828125 11.390625 C-15.08534946 6.89784946 -15.08534946 6.89784946 -13.625 5.4375 C-10.6875 5.1875 -10.6875 5.1875 -7.625 5.4375 C-5.625 8.4375 -5.625 8.4375 -5.9375 11.0625 C-6.625 13.4375 -6.625 13.4375 -7.625 14.4375 C-9.29117115 14.47813832 -10.95888095 14.480221 -12.625 14.4375 C-12.35285664 20.96894075 -9.87215853 24.57756735 -5.625 29.4375 C-5.14546875 30.00082031 -4.6659375 30.56414063 -4.171875 31.14453125 C-1.86271677 33.07466098 0.46106256 32.91575692 3.3671875 32.765625 C6.9070682 32.1871231 8.22557207 31.32579378 10.375 28.4375 C11.43351855 21.59612745 10.10921024 15.04917653 8.375 8.4375 C4.79396391 9.12558626 4.79396391 9.12558626 1.3125 10.1875 C-0.625 10.4375 -0.625 10.4375 -2.875 9.3125 C-4.625 7.4375 -4.625 7.4375 -5 4.875 C-4.46084061 1.37046395 -3.46669049 0.57778175 0 0 Z " fill="#77B9B0" transform="translate(25.625,16.5625)"/>
<path d="M0 0 C9 0 9 0 11.3125 1.80078125 C12.1478125 3.04408203 12.1478125 3.04408203 13 4.3125 C13.97066406 5.67955078 13.97066406 5.67955078 14.9609375 7.07421875 C15.63382813 8.03972656 16.30671875 9.00523438 17 10 C18.52590381 11.88785028 20.06767697 13.76298333 21.625 15.625 C25.24159761 19.99449526 28.58326459 24.44435279 32 29 C32.33 19.43 32.66 9.86 33 0 C36.3 0 39.6 0 43 0 C43 15.51 43 31.02 43 47 C34 47 34 47 31.65234375 45.3828125 C31.08644531 44.63773438 30.52054688 43.89265625 29.9375 43.125 C29.2878125 42.30257812 28.638125 41.48015625 27.96875 40.6328125 C27.3190625 39.76398437 26.669375 38.89515625 26 38 C24.64837914 36.33126809 23.2942189 34.66458973 21.9375 33 C18.25648229 28.36046784 14.63625446 23.67518431 11 19 C10.67 28.24 10.34 37.48 10 47 C6.7 47 3.4 47 0 47 C0 31.49 0 15.98 0 0 Z " fill="#118CA8" transform="translate(144,24)"/>
<path d="M0 0 C7.31172995 -0.40188587 14.48762656 1.24066935 20.2265625 5.95703125 C25.52766705 11.63838381 28.13229796 17.37851266 28.515625 25.12890625 C28.20217627 33.00129171 25.42392162 38.27470368 19.703125 43.62890625 C13.44916848 49.09835586 7.3114497 49.58778929 -0.73046875 49.44140625 C-7.49117798 48.91180357 -13.42798123 46.44483136 -17.921875 41.19140625 C-23.03359849 33.97564881 -24.12304272 26.8887503 -22.921875 18.19140625 C-20.86136283 11.37417983 -16.46514815 6.61194092 -10.421875 2.94140625 C-6.69508094 1.07800922 -4.07559252 0.40590251 0 0 Z M-11.234375 16.00390625 C-13.74896992 20.75369666 -14.14729093 24.38807882 -13.484375 29.69140625 C-11.32276334 34.53341638 -8.3927707 37.37932344 -3.921875 40.19140625 C1.01661069 42.06002246 5.47175895 41.31684929 10.25 39.28515625 C13.87322089 37.11741726 16.19649244 33.95467137 18.078125 30.19140625 C18.8439752 23.32386427 18.18177511 18.77693001 14.078125 13.19140625 C9.66282938 9.17750114 5.34162921 8.83860925 -0.41796875 8.9140625 C-5.50645962 9.47768629 -8.10478101 12.19764329 -11.234375 16.00390625 Z " fill="#138CA7" transform="translate(217.921875,22.80859375)"/>
<path d="M0 0 C3.3 0 6.6 0 10 0 C14.57494098 8.97838663 18.92262963 18.0243662 23.02734375 27.2265625 C23.89108343 29.16102094 24.76171051 31.09228482 25.6328125 33.0234375 C26.19051086 34.26804701 26.74781797 35.51283193 27.3046875 36.7578125 C27.79952637 37.8627002 28.29436523 38.96758789 28.80419922 40.10595703 C30 43 30 43 31 47 C27.7 47 24.4 47 21 47 C17 39.25 17 39.25 17 37 C9.41 37.33 1.82 37.66 -6 38 C-7.32 40.97 -8.64 43.94 -10 47 C-13.3 47 -16.6 47 -20 47 C-19.34437075 42.33105617 -17.48443309 38.33178576 -15.5078125 34.1015625 C-15.16120575 33.34837738 -14.814599 32.59519226 -14.45748901 31.81918335 C-13.35166908 29.41877224 -12.23859704 27.02181164 -11.125 24.625 C-10.02008731 22.23464281 -8.91668337 19.84359604 -7.81393433 17.45223999 C-7.12878193 15.96779923 -6.44212446 14.48405187 -5.75369263 13.00112915 C-3.76000554 8.69726151 -1.84848141 4.36829474 0 0 Z M5 11 C4.20576139 12.56119422 3.41472877 14.12401964 2.625 15.6875 C2.18414062 16.55761719 1.74328125 17.42773438 1.2890625 18.32421875 C-1.23920376 23.44085409 -1.23920376 23.44085409 -2 29 C2.95 29 7.9 29 13 29 C11.02989474 22.79416842 8.74844552 16.90148454 6 11 C5.67 11 5.34 11 5 11 Z " fill="#148CA7" transform="translate(317,24)"/>
<path d="M0 0 C3.3 0 6.6 0 10 0 C13.7150334 7.26941671 17.09197761 14.62476118 20.3125 22.125 C20.9940918 23.7028125 20.9940918 23.7028125 21.68945312 25.3125 C22.79551821 27.87391388 23.8989844 30.43641258 25 33 C30.15918359 22.06897977 35.1226734 11.05949643 40 0 C43.3 0 46.6 0 50 0 C47.51569263 8.13367537 44.08032684 15.7746916 40.5625 23.5 C39.9833128 24.77976192 39.40453427 26.05970887 38.82617188 27.33984375 C37.71942491 29.78859397 36.61059709 32.23636138 35.50048828 34.68359375 C33.64693837 38.78034317 31.81916451 42.88788367 30 47 C26.7 47 23.4 47 20 47 C15.65825068 38.63686345 11.912429 30.06241646 8.21411133 21.40185547 C7.17697975 18.97538687 6.13269764 16.55207828 5.08789062 14.12890625 C4.42665546 12.58612082 3.76583266 11.04315856 3.10546875 9.5 C2.63683662 8.41416626 2.63683662 8.41416626 2.15873718 7.30639648 C0 2.229625 0 2.229625 0 0 Z " fill="#148CA6" transform="translate(248,24)"/>
<path d="M0 0 C1.32 0 2.64 0 4 0 C4 4.62 4 9.24 4 14 C10.27 14 16.54 14 23 14 C23 9.38 23 4.76 23 0 C24.32 0 25.64 0 27 0 C27 10.56 27 21.12 27 32 C25.68 32 24.36 32 23 32 C23 27.38 23 22.76 23 18 C16.73 18 10.46 18 4 18 C4 22.62 4 27.24 4 32 C2.68 32 1.36 32 0 32 C-0.74080644 21.20701997 -1.25763948 10.77700295 0 0 Z " fill="#0F2F38" transform="translate(146,89)"/>
<path d="M0 0 C3.16118708 1.63913404 5.26864575 3.00269875 7.375 5.875 C8 8 8 8 8 14 C1.73 14 -4.54 14 -11 14 C-8.67748574 18.88495525 -8.67748574 18.88495525 -6 20 C-1.77853434 20.28143104 1.17291493 19.80098121 5 18 C5.66 18.99 6.32 19.98 7 21 C3.84837722 24.15162278 0.68150899 24.78425631 -3.61328125 25.125 C-7.69010839 24.91148368 -10.83389517 23.55605049 -14 21 C-16.70927131 16.2316825 -16.00428386 12.18879997 -15 7 C-14.06628767 4.12105366 -13.2224677 3.18320869 -10.875 1.25 C-7.17970881 -0.35664835 -3.93097971 -0.70003748 0 0 Z M-9.4375 5.875 C-11.19746348 7.82894726 -11.19746348 7.82894726 -11 10 C-6.05 10 -1.1 10 4 10 C2.23148964 6.81925835 2.23148964 6.81925835 0 4 C-5.09553412 3.49323477 -5.09553412 3.49323477 -9.4375 5.875 Z " fill="#0C2C36" transform="translate(396,97)"/>
<path d="M0 0 C3.16118708 1.63913404 5.26864575 3.00269875 7.375 5.875 C8 8 8 8 8 14 C1.73 14 -4.54 14 -11 14 C-8.67748574 18.88495525 -8.67748574 18.88495525 -6 20 C-1.77853434 20.28143104 1.17291493 19.80098121 5 18 C5.33 19.32 5.66 20.64 6 22 C1.46509264 24.9069919 -1.7060074 25.38472864 -6.8828125 24.57421875 C-10.97275196 23.46495473 -13.16638041 21.32621299 -15.375 17.8125 C-16.28714788 13.70783455 -16.15950553 10.05093072 -15 6 C-10.60702341 0.59325959 -6.91576951 -0.93838508 0 0 Z M-9.4375 5.875 C-11.19746348 7.82894726 -11.19746348 7.82894726 -11 10 C-6.05 10 -1.1 10 4 10 C2.23148964 6.81925835 2.23148964 6.81925835 0 4 C-5.09553412 3.49323477 -5.09553412 3.49323477 -9.4375 5.875 Z " fill="#0D2D36" transform="translate(195,97)"/>
<path d="M0 0 C2.31 0.33 4.62 0.66 7 1 C7 1.99 7 2.98 7 4 C5.0625 4.5625 5.0625 4.5625 3 5 C2.67 4.67 2.34 4.34 2 4 C1.67 5.65 1.34 7.3 1 9 C2.32 9 3.64 9 5 9 C5 18.24 5 27.48 5 37 C-1 39 -1 39 -5 39 C-4.855625 38.360625 -4.71125 37.72125 -4.5625 37.0625 C-4.376875 36.051875 -4.19125 35.04125 -4 34 C-3.88140625 33.35675781 -3.7628125 32.71351562 -3.640625 32.05078125 C-2.8157661 26.58118115 -3.39590414 22.04667463 -4.515625 16.65234375 C-5.37571706 11.94264608 -5.52937266 7.58811797 -4 3 C-3.01 3 -2.02 3 -1 3 C-0.67 2.01 -0.34 1.02 0 0 Z " fill="#0F90AD" transform="translate(46,13)"/>
<path d="M0 0 C0.4846875 0.28875 0.969375 0.5775 1.46875 0.875 C0.80875 2.195 0.14875 3.515 -0.53125 4.875 C-1.500625 4.359375 -2.47 3.84375 -3.46875 3.3125 C-7.92082408 1.41222448 -11.9089517 1.53390765 -16.53125 2.875 C-18.98368461 4.77563682 -20.16052427 6.13354855 -21.53125 8.875 C-22.07524285 13.414219 -22.15414461 16.8294269 -19.78125 20.8125 C-17.07650375 23.29185073 -15.05621301 24.84278247 -11.3125 24.921875 C-10.18328125 24.77492188 -10.18328125 24.77492188 -9.03125 24.625 C-8.2784375 24.53734375 -7.525625 24.4496875 -6.75 24.359375 C-4.4210916 23.85095134 -2.60895284 23.02718067 -0.53125 21.875 C0.12875 23.195 0.78875 24.515 1.46875 25.875 C-2.82010447 28.91870317 -7.24838492 30.80833924 -12.53125 30.875 C-17.66396522 29.36980492 -21.45659896 27.02828404 -25.09375 23.125 C-27.56958107 17.52746888 -28.32777781 12.45884533 -26.40625 6.5625 C-24.42775782 2.03894742 -21.50234371 -0.05954394 -17.21875 -2.375 C-10.46120624 -4.26082617 -5.97276457 -3.30799269 0 0 Z " fill="#0B2C36" transform="translate(331.53125,92.125)"/>
<path d="M0 0 C2.0625 1.6875 2.0625 1.6875 3.0625 4.6875 C3.14271999 6.09574893 3.17015977 7.50747231 3.16015625 8.91796875 C3.15693359 9.72041016 3.15371094 10.52285156 3.15039062 11.34960938 C3.14201172 12.18298828 3.13363281 13.01636719 3.125 13.875 C3.12048828 14.71998047 3.11597656 15.56496094 3.11132812 16.43554688 C3.09955403 18.51956155 3.0816189 20.60353977 3.0625 22.6875 C0.83558629 22.93761345 -1.39425122 23.16178352 -3.625 23.375 C-4.86636719 23.50261719 -6.10773438 23.63023438 -7.38671875 23.76171875 C-11.27864038 23.68036945 -12.90561243 23.05859156 -15.9375 20.6875 C-17.72514511 17.73399939 -18.08465328 16.39056566 -17.375 13 C-15.9375 10.6875 -15.9375 10.6875 -13.9375 9.375 C-9.59932757 8.38083549 -5.36766945 8.53265913 -0.9375 8.6875 C-1.2675 7.0375 -1.5975 5.3875 -1.9375 3.6875 C-8.99401252 3.53774761 -8.99401252 3.53774761 -15.9375 4.6875 C-15.9375 3.3675 -15.9375 2.0475 -15.9375 0.6875 C-10.61107955 -1.97571023 -5.44496848 -2.43285826 0 0 Z M-12.9375 13.6875 C-12.97813832 15.35367115 -12.980221 17.02138095 -12.9375 18.6875 C-10.09666359 20.10791821 -8.08272722 20.00202272 -4.9375 19.6875 C-2.4983859 17.99917984 -2.4983859 17.99917984 -0.9375 15.6875 C-0.9375 14.6975 -0.9375 13.7075 -0.9375 12.6875 C-2.74992052 12.66062721 -4.56245233 12.64116285 -6.375 12.625 C-7.88900391 12.60759766 -7.88900391 12.60759766 -9.43359375 12.58984375 C-11.87771067 12.40137324 -11.87771067 12.40137324 -12.9375 13.6875 Z " fill="#0C2C35" transform="translate(353.9375,98.3125)"/>
<path d="M0 0 C2.0625 1.6875 2.0625 1.6875 3.0625 4.6875 C3.14271999 6.09574893 3.17015977 7.50747231 3.16015625 8.91796875 C3.15693359 9.72041016 3.15371094 10.52285156 3.15039062 11.34960938 C3.14201172 12.18298828 3.13363281 13.01636719 3.125 13.875 C3.12048828 14.71998047 3.11597656 15.56496094 3.11132812 16.43554688 C3.09955403 18.51956155 3.0816189 20.60353977 3.0625 22.6875 C2.27488281 22.501875 1.48726562 22.31625 0.67578125 22.125 C-1.89111235 21.41720225 -1.89111235 21.41720225 -3.75 22.6875 C-7.17580925 24.25358423 -10.35644647 23.61705007 -13.9375 22.6875 C-16.12352665 21.20664324 -16.71393993 20.20340786 -17.75 17.8125 C-18.01096134 14.85493816 -17.42158791 13.25092458 -15.9375 10.6875 C-11.49027825 7.76901073 -6.05480847 8.50864262 -0.9375 8.6875 C-1.2675 7.0375 -1.5975 5.3875 -1.9375 3.6875 C-8.99401252 3.53774761 -8.99401252 3.53774761 -15.9375 4.6875 C-15.9375 3.3675 -15.9375 2.0475 -15.9375 0.6875 C-10.61107955 -1.97571023 -5.44496848 -2.43285826 0 0 Z M-12.9375 13.6875 C-12.97813832 15.35367115 -12.980221 17.02138095 -12.9375 18.6875 C-10.09666359 20.10791821 -8.08272722 20.00202272 -4.9375 19.6875 C-2.4983859 17.99917984 -2.4983859 17.99917984 -0.9375 15.6875 C-0.9375 14.6975 -0.9375 13.7075 -0.9375 12.6875 C-2.74992052 12.66062721 -4.56245233 12.64116285 -6.375 12.625 C-7.88900391 12.60759766 -7.88900391 12.60759766 -9.43359375 12.58984375 C-11.87771067 12.40137324 -11.87771067 12.40137324 -12.9375 13.6875 Z " fill="#0F2D37" transform="translate(223.9375,98.3125)"/>
<path d="M0 0 C1.32 0 2.64 0 4 0 C4 3.63 4 7.26 4 11 C5.32 10.34 6.64 9.68 8 9 C14.96132597 8.33701657 14.96132597 8.33701657 18.9375 10.875 C21.74195423 13.76443769 22.1251596 15.22733666 22.09765625 19.1328125 C22.09443359 19.93847656 22.09121094 20.74414062 22.08789062 21.57421875 C22.07951172 22.41597656 22.07113281 23.25773437 22.0625 24.125 C22.05798828 24.97449219 22.05347656 25.82398437 22.04882812 26.69921875 C22.03702874 28.79950909 22.01909306 30.8997633 22 33 C20.68 33 19.36 33 18 33 C17.95101563 31.87980469 17.90203125 30.75960937 17.8515625 29.60546875 C17.77652144 28.13278797 17.70097418 26.66013293 17.625 25.1875 C17.5940625 24.44951172 17.563125 23.71152344 17.53125 22.95117188 C17.32653852 19.18106885 17.13566173 17.20349259 15 14 C10.47587988 13.46259608 10.47587988 13.46259608 6.3203125 15.01171875 C4.24045711 18.14380868 4.4239869 21.54028586 4.3125 25.1875 C4.27833984 25.93708984 4.24417969 26.68667969 4.20898438 27.45898438 C4.12665706 29.30546838 4.06164719 31.15270994 4 33 C2.68 33 1.36 33 0 33 C0 22.11 0 11.22 0 0 Z " fill="#0D2F38" transform="translate(265,88)"/>
<path d="M0 0 C0.66 0.33 1.32 0.66 2 1 C1.649375 1.61875 1.29875 2.2375 0.9375 2.875 C0.628125 3.57625 0.31875 4.2775 0 5 C0.33 5.66 0.66 6.32 1 7 C1.02007335 8.72917566 0.99233272 10.45907738 0.9375 12.1875 C0.88374834 19.04083711 2.16785698 24.25178546 6 30 C3.525 32.475 3.525 32.475 1 35 C-2.53958788 32.75826101 -3.57147413 30.87742737 -5 27 C-5.66 26.67 -6.32 26.34 -7 26 C-7 21 -7 16 -7 11 C-6.34 11 -5.68 11 -5 11 C-5 9.68 -5 8.36 -5 7 C-4.63966473 4.02723399 -4.26977248 3.22889786 -1.9375 1.25 C-1.298125 0.8375 -0.65875 0.425 0 0 Z " fill="#0C8EAC" transform="translate(204,31)"/>
<path d="M0 0 C1.32 0 2.64 0 4 0 C4 1.65 4 3.3 4 5 C6.31 5 8.62 5 11 5 C11 6.32 11 7.64 11 9 C8.69 9 6.38 9 4 9 C4.33 13.95 4.66 18.9 5 24 C6.65 24.33 8.3 24.66 10 25 C10.99 25.33 11.98 25.66 13 26 C12.67 26.99 12.34 27.98 12 29 C8.8125 29.8125 8.8125 29.8125 5 30 C2.2848325 28.03384422 0.30935589 26.48828857 -0.39770508 23.08666992 C-0.49173881 20.93251175 -0.4375244 18.83984316 -0.3125 16.6875 C-0.28994141 15.94693359 -0.26738281 15.20636719 -0.24414062 14.44335938 C-0.1855815 12.62802643 -0.09590886 10.81374319 0 9 C-1.32 9 -2.64 9 -4 9 C-4 7.68 -4 6.36 -4 5 C-2.68 5 -1.36 5 0 5 C0 3.35 0 1.7 0 0 Z " fill="#0E2D35" transform="translate(247,92)"/>
<path d="M0 0 C2.85552944 0.08763 5.70818989 0.19459007 8.5625 0.3125 C9.76229492 0.34633789 9.76229492 0.34633789 10.98632812 0.38085938 C16.32674181 0.62063305 20.27584357 1.44032194 25 4 C27.49267765 7.73901647 27.12709613 9.2889983 26.55859375 13.5703125 C25.66822388 17.44311012 23.94621381 20.54704001 22 24 C21.67 23.34 21.34 22.68 21 22 C21.77734375 19.72265625 21.77734375 19.72265625 22.9375 17.0625 C24.24374985 14.05591137 25 12.30477106 25 9 C23.68 11.97 22.36 14.94 21 18 C20.67 17.34 20.34 16.68 20 16 C20.33 15.34 20.66 14.68 21 14 C21.039992 12.00039988 21.04346799 9.99952758 21 8 C18.84157215 6.92078608 17.39706736 6.75414001 15.0078125 6.53515625 C14.22019531 6.45716797 13.43257812 6.37917969 12.62109375 6.29882812 C10.96513792 6.14204357 9.30888478 5.98836631 7.65234375 5.83789062 C6.46705078 5.71897461 6.46705078 5.71897461 5.2578125 5.59765625 C4.5373877 5.53070557 3.81696289 5.46375488 3.07470703 5.39477539 C0.77770678 4.95770203 -0.96376348 4.1305098 -3 3 C-1.35 2.67 0.3 2.34 2 2 C1.34 1.34 0.68 0.68 0 0 Z " fill="#76B0A9" transform="translate(97,68)"/>
<path d="M0 0 C1.258125 -0.04125 2.51625 -0.0825 3.8125 -0.125 C4.52019531 -0.14820312 5.22789062 -0.17140625 5.95703125 -0.1953125 C8 0 8 0 11 2 C14.62405427 7.86813058 16.70709227 15.12793395 17 22 C16.34 22.99 15.68 23.98 15 25 C14.34 24.67 13.68 24.34 13 24 C13 23.34 13 22.68 13 22 C12.34 21.67 11.68 21.34 11 21 C11 18.36 11 15.72 11 13 C10.01 12.67 9.02 12.34 8 12 C7.67 11.34 7.34 10.68 7 10 C4.47266765 9.34444881 4.47266765 9.34444881 2 9 C2 7.68 2 6.36 2 5 C1.34 5 0.68 5 0 5 C0 3.35 0 1.7 0 0 Z " fill="#0E8DAB" transform="translate(318,25)"/>
<path d="M0 0 C0.94314127 3.41610225 1.08065117 6.45134864 1 10 C0.01 10.33 -0.98 10.66 -2 11 C-3.21869929 13.50447516 -3.21869929 13.50447516 -4 16 C-2.35 16 -0.7 16 1 16 C1.95465783 18.16967689 2.14401212 19.56328793 1.3984375 21.82421875 C0.64129615 23.5684743 -0.17609198 25.28627131 -1 27 C-4.3 27 -7.6 27 -11 27 C-10.38333953 23.25577927 -9.30434425 20.13978312 -7.71484375 16.69921875 C-7.26689453 15.72275391 -6.81894531 14.74628906 -6.35742188 13.74023438 C-5.88884766 12.73283203 -5.42027344 11.72542969 -4.9375 10.6875 C-4.46505859 9.66076172 -3.99261719 8.63402344 -3.50585938 7.57617188 C-2.34197675 5.048548 -1.17322145 2.52329928 0 0 Z " fill="#138AA6" transform="translate(308,44)"/>
<path d="M0 0 C1.65 0 3.3 0 5 0 C5 0.66 5 1.32 5 2 C5.5775 1.67 6.155 1.34 6.75 1 C9 0 9 0 13 0 C13 1.32 13 2.64 13 4 C12.21625 4.28875 11.4325 4.5775 10.625 4.875 C7.90328368 5.84912254 7.90328368 5.84912254 6 8 C5.6936141 10.73434962 5.4886664 13.38279821 5.375 16.125 C5.33632813 16.87910156 5.29765625 17.63320312 5.2578125 18.41015625 C5.16348969 20.27303184 5.08065338 22.13648255 5 24 C3.68 24 2.36 24 1 24 C0.67 16.08 0.34 8.16 0 0 Z " fill="#0B2F36" transform="translate(364,97)"/>
<path d="M0 0 C1.32 0 2.64 0 4 0 C4 10.89 4 21.78 4 33 C2.68 33 1.36 33 0 33 C0 22.11 0 11.22 0 0 Z " fill="#0F2E36" transform="translate(235,88)"/>
<path d="M0 0 C0.99 0.33 1.98 0.66 3 1 C1.52173913 7.65217391 1.52173913 7.65217391 -1.0625 9.375 C-1.701875 9.58125 -2.34125 9.7875 -3 10 C-3.33 10.33 -3.66 10.66 -4 11 C-5.91352846 11.12619896 -7.83235023 11.17580701 -9.75 11.1875 C-10.79671875 11.20167969 -11.8434375 11.21585938 -12.921875 11.23046875 C-16.02080677 10.99844213 -18.20276014 10.31055867 -21 9 C-21 8.01 -21 7.02 -21 6 C-17.90177595 5.05984925 -15.40235783 5.0272382 -12.1875 5.25 C-6.56972039 5.35771554 -4.30038977 3.42275921 0 0 Z " fill="#0B8EAC" transform="translate(232,60)"/>
<path d="M0 0 C5.17474558 0.43853776 5.17474558 0.43853776 8 2 C10.48091626 5.78914288 13 10.37701425 13 15 C11.35425434 15.02688151 9.70838587 15.04634123 8.0625 15.0625 C7.14597656 15.07410156 6.22945313 15.08570312 5.28515625 15.09765625 C3 15 3 15 2 14 C1.64159778 11.67038557 1.31151288 9.33634657 1 7 C0.814375 6.071875 0.62875 5.14375 0.4375 4.1875 C0 2 0 2 0 0 Z " fill="#108CA8" transform="translate(335,56)"/>
<path d="M0 0 C4.32717409 2.92376627 6.85224646 5.89385236 8 11 C8.74074074 21.51851852 8.74074074 21.51851852 7 25 C6.34 25 5.68 25 5 25 C4.566875 24.54625 4.13375 24.0925 3.6875 23.625 C1.64371183 21.65690769 -0.34530324 20.93273129 -3 20 C-3 17.69 -3 15.38 -3 13 C-0.36 13.33 2.28 13.66 5 14 C5.33 12.35 5.66 10.7 6 9 C5.34 9 4.68 9 4 9 C3.67 8.01 3.34 7.02 3 6 C2.34 5.67 1.68 5.34 1 5 C0.375 2.4375 0.375 2.4375 0 0 Z " fill="#158CA6" transform="translate(119,48)"/>
<path d="M0 0 C0.83426514 0.64815674 1.66853027 1.29631348 2.52807617 1.96411133 C6.15442802 4.37091395 9.18923004 4.52540045 13.55078125 4.57421875 C14.25019333 4.58838333 14.94960541 4.60254791 15.67021179 4.61714172 C17.88446811 4.65878525 20.09790845 4.67424186 22.3125 4.6875 C24.54456796 4.71655026 26.77643056 4.75101625 29.00834656 4.78999329 C31.02015655 4.82270458 33.03218851 4.84078468 35.04418945 4.8581543 C38 5 38 5 39 6 C39.14688335 8.31625207 39.22759191 10.63674696 39.28125 12.95703125 C39.30886414 14.00608894 39.30886414 14.00608894 39.33703613 15.07633972 C39.39594972 17.32163859 39.44865546 19.56701606 39.5 21.8125 C39.56779851 24.75666597 39.64157416 27.70059797 39.71875 30.64453125 C39.74904297 31.95784424 39.77933594 33.27115723 39.81054688 34.62426758 C39.95974505 37.28272533 40.21017995 39.47825168 41 42 C40.01 41.67 39.02 41.34 38 41 C37.17777446 36.70394268 36.88229205 32.66033397 36.90234375 28.2890625 C36.90556641 27.04511719 36.90878906 25.80117187 36.91210938 24.51953125 C36.92467773 22.59173828 36.92467773 22.59173828 36.9375 20.625 C36.94201172 19.31660156 36.94652344 18.00820312 36.95117188 16.66015625 C36.96292406 13.44005719 36.97935457 10.2200523 37 7 C36.0212793 6.9906543 35.04255859 6.98130859 34.03417969 6.97167969 C30.39586209 6.93174542 26.75838709 6.86597866 23.12060547 6.79248047 C21.54747356 6.76429046 19.97420053 6.74306602 18.40087891 6.72900391 C16.13631044 6.70754558 13.87343496 6.66088652 11.609375 6.609375 C10.90818542 6.60814636 10.20699585 6.60691772 9.48455811 6.60565186 C6.05891073 6.5033641 4.2690861 6.20794465 1.52441406 4.08691406 C0 2 0 2 0 0 Z " fill="#80B5AE" transform="translate(13,72)"/>
<path d="M0 0 C0.94875 0.04125 1.8975 0.0825 2.875 0.125 C3.205 0.785 3.535 1.445 3.875 2.125 C3.545 2.785 3.215 3.445 2.875 4.125 C3.6175 4.021875 4.36 3.91875 5.125 3.8125 C7.875 4.125 7.875 4.125 10.125 6.1875 C12.13870177 9.56764226 12.56963324 12.23157375 12.875 16.125 C10.62254119 13.43658141 8.99286042 11.47858125 7.875 8.125 C4.29396391 8.81308626 4.29396391 8.81308626 0.8125 9.875 C-1.125 10.125 -1.125 10.125 -3.375 9 C-5.125 7.125 -5.125 7.125 -5.5 4.5625 C-4.90648953 0.70468194 -3.83959735 0.15358389 0 0 Z " fill="#79BFB8" transform="translate(26.125,16.875)"/>
<path d="M0 0 C1.125 3.75 1.125 3.75 0 6 C0.99 5.67 1.98 5.34 3 5 C4.96899333 6.65141376 5.90670482 7.63215042 6.546875 10.15625 C6.61390625 10.9296875 6.6809375 11.703125 6.75 12.5 C6.82734375 13.2734375 6.9046875 14.046875 6.984375 14.84375 C7 17 7 17 6 20 C3.625 19.6875 3.625 19.6875 1 19 C-1.29013653 15.5647952 -1.17842973 14.014669 -1 10 C-1.66 10 -2.32 10 -3 10 C-2.25 2.25 -2.25 2.25 0 0 Z " fill="#0D8EAC" transform="translate(262,38)"/>
<path d="M0 0 C3.98447225 3.29749428 5.75139159 7.07215881 7 12 C7.33591896 15.6810405 7.28602088 19.30793742 7.1875 23 C7.125625 26.3 7.06375 29.6 7 33 C14.26 33 21.52 33 29 33 C29 33.33 29 33.66 29 34 C21.08 34 13.16 34 5 34 C4.01750161 31.05250483 3.92959903 29.3744891 4.04296875 26.32421875 C4.06423828 25.41349609 4.08550781 24.50277344 4.10742188 23.56445312 C4.16049149 21.65783013 4.22545471 19.75149836 4.30273438 17.84570312 C4.41660028 11.86141734 3.75831694 8.88064342 0 4 C0 2.68 0 1.36 0 0 Z " fill="#228BA4" transform="translate(80,9)"/>
<path d="M0 0 C2.31 0.33 4.62 0.66 7 1 C7.1953125 3.05078125 7.390625 5.1015625 7.5859375 7.15234375 C7.72257812 7.76207031 7.85921875 8.37179688 8 9 C8.66 9.33 9.32 9.66 10 10 C8.68 12.64 7.36 15.28 6 18 C4 14 4 14 4 10 C3.34 10 2.68 10 2 10 C1.34 6.7 0.68 3.4 0 0 Z " fill="#0D8EAE" transform="translate(251,25)"/>
<path d="M0 0 C6 9 6 9 6 12 C4.68 11.67 3.36 11.34 2 11 C0.28690448 13.80411371 0.28690448 13.80411371 0.3125 17 C0.539375 17.66 0.76625 18.32 1 19 C1.33333333 20.33333333 1.66666667 21.66666667 2 23 C-1 22 -1 22 -2.640625 18.91015625 C-3.18842218 17.63240603 -3.72445938 16.34956428 -4.25 15.0625 C-4.53101563 14.41603516 -4.81203125 13.76957031 -5.1015625 13.10351562 C-5.80373244 11.42977885 -6.40920546 9.71621654 -7 8 C-6.67 7.34 -6.34 6.68 -6 6 C-5.67 6.99 -5.34 7.98 -5 9 C-3.35 9.33 -1.7 9.66 0 10 C0 6.7 0 3.4 0 0 Z " fill="#1A89A2" transform="translate(268,48)"/>
<path d="M0 0 C0.33 0.66 0.66 1.32 1 2 C2.98 1.34 4.96 0.68 7 0 C6.67 0.99 6.34 1.98 6 3 C4.35 3 2.7 3 1 3 C1.27214336 9.53144075 3.75284147 13.14006735 8 18 C8.47953125 18.56460938 8.9590625 19.12921875 9.453125 19.7109375 C11.76279099 21.63565916 14.09283523 21.40097595 16.9921875 21.3046875 C19.80301422 20.87814181 21.74866987 19.68849759 24 18 C22.25 21.875 22.25 21.875 20 23 C10.46555006 24.07473671 10.46555006 24.07473671 6.1875 20.9375 C5.465625 19.968125 4.74375 18.99875 4 18 C3.16082031 17.25556641 3.16082031 17.25556641 2.3046875 16.49609375 C0.39654411 14.72057916 -0.85671792 13.35177037 -2 11 C-1.91174414 7.15308284 -1.10324181 3.67525735 0 0 Z " fill="#75B4AC" transform="translate(12,28)"/>
<path d="M0 0 C2.0839403 0.11443603 4.16716493 0.24195547 6.25 0.375 C7.41015625 0.44460937 8.5703125 0.51421875 9.765625 0.5859375 C12.70694334 0.96248308 14.49949011 1.4774123 17 3 C17.33 2.01 17.66 1.02 18 0 C20.49267765 3.73901647 20.12709613 5.2889983 19.55859375 9.5703125 C18.66822388 13.44311012 16.94621381 16.54704001 15 20 C14.67 19.34 14.34 18.68 14 18 C14.77734375 15.72265625 14.77734375 15.72265625 15.9375 13.0625 C17.24374985 10.05591137 18 8.30477106 18 5 C16.68 7.97 15.36 10.94 14 14 C13.67 13.34 13.34 12.68 13 12 C13.33 11.34 13.66 10.68 14 10 C14.039992 8.00039988 14.04346799 5.99952758 14 4 C10.71110958 2.35555479 7.06675313 2.6009589 3.43359375 2.37890625 C2.63050781 2.25386719 1.82742187 2.12882812 1 2 C0.67 1.34 0.34 0.68 0 0 Z " fill="#72AFA6" transform="translate(104,72)"/>
<path d="M0 0 C2.31 0.66 4.62 1.32 7 2 C7.33 3.98 7.66 5.96 8 8 C6.35 8.33 4.7 8.66 3 9 C2.67 9.99 2.34 10.98 2 12 C0.86235649 7.73383684 0 4.43513689 0 0 Z " fill="#0C8EAB" transform="translate(335,56)"/>
<path d="M0 0 C1.47533203 0.495 1.47533203 0.495 2.98046875 1 C7.15010432 2.19282448 11.00907502 2.15953383 15.3125 2 C17.90071686 1.90664682 20.40566465 1.90598105 23 2 C23.66 2.66 24.32 3.32 25 4 C18.4 4 11.8 4 5 4 C7.475 4.99 7.475 4.99 10 6 C10 6.33 10 6.66 10 7 C7.03 6.67 4.06 6.34 1 6 C1 5.01 1 4.02 1 3 C0.67 2.01 0.34 1.02 0 0 Z " fill="#75B2A8" transform="translate(42,64)"/>
<path d="M0 0 C0.33 0 0.66 0 1 0 C1.02465504 4.39656173 1.04283842 8.7930872 1.05493164 13.18969727 C1.05997121 14.68644918 1.06680287 16.18319616 1.07543945 17.67993164 C1.08752159 19.82699807 1.09323191 21.97399962 1.09765625 24.12109375 C1.10289307 25.4145874 1.10812988 26.70808105 1.11352539 28.04077148 C1 31 1 31 0 32 C-1.85287502 32.07226502 -3.70833878 32.0838122 -5.5625 32.0625 C-6.57441406 32.05347656 -7.58632813 32.04445312 -8.62890625 32.03515625 C-9.41136719 32.02355469 -10.19382813 32.01195312 -11 32 C-10.505 30.515 -10.505 30.515 -10 29 C-10 29.66 -10 30.32 -10 31 C-7.03 30.34 -4.06 29.68 -1 29 C-0.67 19.43 -0.34 9.86 0 0 Z " fill="#2B8899" transform="translate(51,21)"/>
<path d="M0 0 C0.66 0 1.32 0 2 0 C2.2475 0.639375 2.495 1.27875 2.75 1.9375 C3.78813195 4.19635114 3.78813195 4.19635114 6 4.5 C8 5 8 5 9.25 7.0625 C9.4975 7.701875 9.745 8.34125 10 9 C9.01 9.99 8.02 10.98 7 12 C5.821389 10.76125579 4.65747085 9.5085199 3.5 8.25 C2.8503125 7.55390625 2.200625 6.8578125 1.53125 6.140625 C0 4 0 4 0 0 Z " fill="#82BEB6" transform="translate(79,89)"/>
<path d="M0 0 C0.94875 0.04125 1.8975 0.0825 2.875 0.125 C3.205 1.775 3.535 3.425 3.875 5.125 C0.875 7.125 0.875 7.125 -3.125 7.125 C-3.785 5.475 -4.445 3.825 -5.125 2.125 C-3.125 0.125 -3.125 0.125 0 0 Z " fill="#7ABFB7" transform="translate(16.125,22.875)"/>
<path d="M0 0 C3.98447225 3.29749428 5.75139159 7.07215881 7 12 C7.33573843 15.67906224 7.28675421 19.3097792 7.1875 23 C7.17396484 23.96550781 7.16042969 24.93101563 7.14648438 25.92578125 C7.11145458 28.28445425 7.06234084 30.64191771 7 33 C6.67 33 6.34 33 6 33 C5.9906543 32.43603516 5.98130859 31.87207031 5.97167969 31.29101562 C5.91742514 28.69318008 5.83389317 26.09704081 5.75 23.5 C5.73582031 22.613125 5.72164063 21.72625 5.70703125 20.8125 C5.50648805 15.35772496 4.67393902 11.41515581 1.921875 6.67382812 C0.7360785 4.52080355 0.30322096 2.42576771 0 0 Z " fill="#2B879A" transform="translate(80,9)"/>
<path d="M0 0 C1.00987916 3.85183999 1.70125063 7.7422829 2.40234375 11.66015625 C2.92545337 14.24733665 2.92545337 14.24733665 5 17 C-0.58878505 15.54205607 -0.58878505 15.54205607 -2.375 13.1875 C-3.0858831 10.69940916 -3.14307397 8.57533152 -3 6 C-2.34 6 -1.68 6 -1 6 C-1.0309375 4.7934375 -1.0309375 4.7934375 -1.0625 3.5625 C-1 1 -1 1 0 0 Z " fill="#1A89A1" transform="translate(204,42)"/>
<path d="M0 0 C2.60452271 0.14086602 5.20850197 0.28748464 7.8125 0.4375 C8.91948242 0.49647461 8.91948242 0.49647461 10.04882812 0.55664062 C13.23071342 0.74381035 15.96162378 0.98720793 19 2 C19 2.99 19 3.98 19 5 C9.595 3.515 9.595 3.515 0 2 C0 1.34 0 0.68 0 0 Z " fill="#70BFB4" transform="translate(102,70)"/>
<path d="M0 0 C3.59634744 3.49359465 6.83451967 7.11098131 10 11 C9.01 11.495 9.01 11.495 8 12 C7.01 10.68 6.02 9.36 5 8 C3.35 8.66 1.7 9.32 0 10 C-1 9 -1 9 -1.0625 6.4375 C-1.041875 5.633125 -1.02125 4.82875 -1 4 C-0.34 3.67 0.32 3.34 1 3 C0.67 2.01 0.34 1.02 0 0 Z " fill="#1788A4" transform="translate(153,26)"/>
<path d="M0 0 C0.94875 0.04125 1.8975 0.0825 2.875 0.125 C3.205 0.785 3.535 1.445 3.875 2.125 C2.555 2.455 1.235 2.785 -0.125 3.125 C-0.455 4.445 -0.785 5.765 -1.125 7.125 C0.525 7.125 2.175 7.125 3.875 7.125 C2.885 8.115 1.895 9.105 0.875 10.125 C-4 8.25 -4 8.25 -5.125 7.125 C-5.3125 4.6875 -5.3125 4.6875 -5.125 2.125 C-3.125 0.125 -3.125 0.125 0 0 Z " fill="#7EB6AC" transform="translate(26.125,16.875)"/>
<path d="M0 0 C1.65 0 3.3 0 5 0 C5 0.66 5 1.32 5 2 C5.5775 1.67 6.155 1.34 6.75 1 C9 0 9 0 13 0 C13 1.32 13 2.64 13 4 C11.02 4.66 9.04 5.32 7 6 C7 5.34 7 4.68 7 4 C6.01 4 5.02 4 4 4 C4 3.34 4 2.68 4 2 C3.34 2 2.68 2 2 2 C1.67 2.66 1.34 3.32 1 4 C0.67 2.68 0.34 1.36 0 0 Z " fill="#142A33" transform="translate(364,97)"/>
<path d="M0 0 C0.99 0.66 1.98 1.32 3 2 C1.84530538 4.30938924 0.68905733 6.495205 -0.6875 8.6875 C-2.4280704 13.08036814 -1.84125234 16.43899336 -1 21 C-3.2477975 18.94766315 -4.0022242 17.99332739 -5 15 C-4.72230092 12.6593935 -4.39460023 10.32375692 -4 8 C-3.34 8 -2.68 8 -2 8 C-2 6.68 -2 5.36 -2 4 C-1 1.75 -1 1.75 0 0 Z " fill="#7DB4AD" transform="translate(14,51)"/>
<path d="M0 0 C0.66 0.33 1.32 0.66 2 1 C2 5.95 2 10.9 2 16 C1.01 16.33 0.02 16.66 -1 17 C-1.33 15.68 -1.66 14.36 -2 13 C-1.34 13 -0.68 13 0 13 C0 11.02 0 9.04 0 7 C-0.66 6.67 -1.32 6.34 -2 6 C-1.34 6 -0.68 6 0 6 C0 4.02 0 2.04 0 0 Z " fill="#0A323E" transform="translate(224,103)"/>
<path d="M0 0 C0.94314127 3.41610225 1.08065117 6.45134864 1 10 C0.01 10.33 -0.98 10.66 -2 11 C-3.70855022 14.00007271 -3.70855022 14.00007271 -5 17 C-5.66 17 -6.32 17 -7 17 C-5.24009216 11.08030998 -2.60305395 5.58365008 0 0 Z " fill="#21879E" transform="translate(308,44)"/>
<path d="M0 0 C4.89051187 1.81130069 7.6998441 5.83307349 10.3125 10.1875 C11 12 11 12 11 15 C10.34 15 9.68 15 9 15 C8.01 12.36 7.02 9.72 6 7 C3.9254644 6.8509288 3.9254644 6.8509288 2 8 C0.875 4.25 0.875 4.25 2 2 C1.34 2 0.68 2 0 2 C0 1.34 0 0.68 0 0 Z " fill="#1C899D" transform="translate(234,27)"/>
<path d="M0 0 C0.33 1.32 0.66 2.64 1 4 C-2.48092827 6.96902705 -5.65466732 9.49584638 -10 11 C-13.10768812 10.65866376 -16.01688785 9.9214502 -19 9 C-16.94465759 8.46402636 -14.90733245 7.98325685 -12.81640625 7.60546875 C-7.89176234 6.69223322 -4.65276555 5.65276555 -1 2 C-0.67 1.34 -0.34 0.68 0 0 Z " fill="#22859C" transform="translate(234,55)"/>
<path d="M0 0 C2 0 2 0 4.5 2.25 C6.56954228 4.5264965 7.85749293 6.19566446 9 9 C7.68 9.33 6.36 9.66 5 10 C0 4.5 0 4.5 0 0 Z " fill="#69C4BC" transform="translate(12,42)"/>
<path d="M0 0 C0.33 0 0.66 0 1 0 C1 8.91 1 17.82 1 27 C0.01 27 -0.98 27 -2 27 C-1.84152588 26.28432861 -1.68305176 25.56865723 -1.51977539 24.83129883 C-1.01543043 22.08405198 -0.79773833 19.4876077 -0.68359375 16.69921875 C-0.64169922 15.72275391 -0.59980469 14.74628906 -0.55664062 13.74023438 C-0.51732422 12.73283203 -0.47800781 11.72542969 -0.4375 10.6875 C-0.37272461 9.14739258 -0.37272461 9.14739258 -0.30664062 7.57617188 C-0.20093175 5.05090431 -0.09883532 2.52554438 0 0 Z " fill="#1E829B" transform="translate(153,44)"/>
<path d="M0 0 C0.33 0 0.66 0 1 0 C1.53321643 7.09474089 0.92720999 12.90560055 -3 19 C-3.99 19.66 -4.98 20.32 -6 21 C-4.125 16.125 -4.125 16.125 -3 15 C-2.63239269 12.67182036 -2.29758419 10.3381615 -2 8 C-1.34 8 -0.68 8 0 8 C0 5.36 0 2.72 0 0 Z " fill="#20879B" transform="translate(245,43)"/>
<path d="M0 0 C1.32 0 2.64 0 4 0 C4 2.64 4 5.28 4 8 C3.01 8 2.02 8 1 8 C0 7 0 7 -0.0625 3.4375 C-0.041875 2.303125 -0.02125 1.16875 0 0 Z " fill="#12333F" transform="translate(146,89)"/>
<path d="M0 0 C5.94 0 11.88 0 18 0 C17.67 0.66 17.34 1.32 17 2 C11.82951548 3.6647727 7.45199292 4.54142109 2.3125 2.625 C1.549375 2.08875 0.78625 1.5525 0 1 C0 0.67 0 0.34 0 0 Z " fill="#79C0B5" transform="translate(46,67)"/>
<path d="M0 0 C3 1 3 1 5 4 C5 5.32 5 6.64 5 8 C5.66 8 6.32 8 7 8 C7.33 8.99 7.66 9.98 8 11 C7.01 11.495 7.01 11.495 6 12 C2.50071836 9.66714557 2.3670902 8.79204931 1.3125 4.875 C1.06113281 3.96492188 0.80976562 3.05484375 0.55078125 2.1171875 C0.27814453 1.06917969 0.27814453 1.06917969 0 0 Z " fill="#77C0B5" transform="translate(71,76)"/>
<path d="M0 0 C0.55171875 0.16371094 1.1034375 0.32742187 1.671875 0.49609375 C4.26614007 1.05760414 6.59835411 1.09739008 9.25 1.0625 C10.58804687 1.04896484 10.58804687 1.04896484 11.953125 1.03515625 C12.62859375 1.02355469 13.3040625 1.01195313 14 1 C14.33 2.65 14.66 4.3 15 6 C14.01 6.66 13.02 7.32 12 8 C12.33 6.35 12.66 4.7 13 3 C7.06 3.495 7.06 3.495 1 4 C0.67 2.68 0.34 1.36 0 0 Z " fill="#06242E" transform="translate(340,108)"/>
<path d="M0 0 C0.33 0 0.66 0 1 0 C1.12375 0.969375 1.2475 1.93875 1.375 2.9375 C1.684375 4.4534375 1.684375 4.4534375 2 6 C2.66 6.33 3.32 6.66 4 7 C3.67 7.99 3.34 8.98 3 10 C0.9375 10.6875 0.9375 10.6875 -1 11 C-1.125 3.375 -1.125 3.375 0 0 Z " fill="#1C8DA4" transform="translate(42,16)"/>
<path d="M0 0 C0.99 0.33 1.98 0.66 3 1 C3 1.99 3 2.98 3 4 C3.66 4 4.32 4 5 4 C5 5.98 5 7.96 5 10 C4.01 9.67 3.02 9.34 2 9 C2 8.01 2 7.02 2 6 C1.34 5.67 0.68 5.34 0 5 C0 3.35 0 1.7 0 0 Z " fill="#098FAF" transform="translate(120,53)"/>
<path d="M0 0 C0.33 0 0.66 0 1 0 C1.06058594 1.10859375 1.12117188 2.2171875 1.18359375 3.359375 C1.26802951 4.8229282 1.35267599 6.28646925 1.4375 7.75 C1.47681641 8.47960937 1.51613281 9.20921875 1.55664062 9.9609375 C1.76147098 13.4272973 2.0852002 16.65333026 3 20 C2.01 19.67 1.02 19.34 0 19 C-0.9154645 14.53795824 -0.97847873 10.65454615 -0.5625 6.125 C-0.46066406 4.97257812 -0.35882813 3.82015625 -0.25390625 2.6328125 C-0.17011719 1.76398438 -0.08632813 0.89515625 0 0 Z " fill="#83B6B0" transform="translate(51,94)"/>
<path d="M0 0 C0.99 0.33 1.98 0.66 3 1 C2.4140625 7.15234375 2.4140625 7.15234375 2 9 C1.01 9.495 1.01 9.495 0 10 C-1.125 2.25 -1.125 2.25 0 0 Z " fill="#07303B" transform="translate(305,101)"/>
<path d="M0 0 C2.475 0.495 2.475 0.495 5 1 C5.66 3.31 6.32 5.62 7 8 C7.66 8 8.32 8 9 8 C8.67 8.99 8.34 9.98 8 11 C6.66375099 9.35653302 5.33107149 7.71016314 4 6.0625 C3.2575 5.14597656 2.515 4.22945312 1.75 3.28515625 C0 1 0 1 0 0 Z " fill="#1E869E" transform="translate(156,43)"/>
<path d="M0 0 C2.33294775 -0.04241723 4.66702567 -0.04092937 7 0 C7.33 0.33 7.66 0.66 8 1 C9.84891946 1.23363881 11.70488031 1.41303635 13.5625 1.5625 C14.57441406 1.64628906 15.58632812 1.73007813 16.62890625 1.81640625 C17.80259766 1.90728516 17.80259766 1.90728516 19 2 C19 2.33 19 2.66 19 3 C16.95863605 3.05451714 14.91684144 3.09302485 12.875 3.125 C11.16957031 3.15980469 11.16957031 3.15980469 9.4296875 3.1953125 C5.94242233 2.99672109 3.2446138 2.2524801 0 1 C0 0.67 0 0.34 0 0 Z " fill="#24879C" transform="translate(208,69)"/>
<path d="M0 0 C2.8125 0.1875 2.8125 0.1875 6 1 C7.875 3.5625 7.875 3.5625 9 6 C8.01 6 7.02 6 6 6 C5.67 4.68 5.34 3.36 5 2 C4.34 2 3.68 2 3 2 C3.33 2.99 3.66 3.98 4 5 C3.34 5 2.68 5 2 5 C1.34 3.35 0.68 1.7 0 0 Z " fill="#75B7AE" transform="translate(76,87)"/>
<path d="M0 0 C2.66666667 2.66666667 5.33333333 5.33333333 8 8 C7.67 8.66 7.34 9.32 7 10 C6.38125 9.525625 5.7625 9.05125 5.125 8.5625 C3.09294454 6.97582559 3.09294454 6.97582559 1 6 C-0.1875 4.0625 -0.1875 4.0625 -1 2 C-0.67 1.34 -0.34 0.68 0 0 Z " fill="#1F87A0" transform="translate(163,38)"/>
<path d="M0 0 C3 1 3 1 4.375 2.4375 C6.38576214 4.37092514 8.39052205 5.0831564 11 6 C10.67 6.66 10.34 7.32 10 8 C7.31199188 7.84639954 5.54172723 7.51244468 3.5546875 5.6328125 C0 1.3875 0 1.3875 0 0 Z " fill="#1E86A0" transform="translate(172,63)"/>
<path d="M0 0 C0.33 0.66 0.66 1.32 1 2 C0.26821134 4.07196631 -0.55899003 6.1108552 -1.4375 8.125 C-1.91058594 9.22070312 -2.38367188 10.31640625 -2.87109375 11.4453125 C-3.24363281 12.28835937 -3.61617188 13.13140625 -4 14 C-4.33 14 -4.66 14 -5 14 C-5.17942163 10.05272412 -5.09350689 7.4019487 -3 4 C-2.34 4 -1.68 4 -1 4 C-0.67 2.68 -0.34 1.36 0 0 Z " fill="#21889E" transform="translate(288,44)"/>
<path d="M0 0 C1.32 0.66 2.64 1.32 4 2 C2.68 3.32 1.36 4.64 0 6 C-0.99 5.67 -1.98 5.34 -3 5 C-2.01 3.35 -1.02 1.7 0 0 Z " fill="#112B2F" transform="translate(399,115)"/>
<path d="M0 0 C0.99 0 1.98 0 3 0 C3 2.31 3 4.62 3 7 C2.01 7.33 1.02 7.66 0 8 C0 5.36 0 2.72 0 0 Z " fill="#0B323B" transform="translate(265,88)"/>
<path d="M0 0 C6 9 6 9 6 12 C5.01 11.67 4.02 11.34 3 11 C3 10.34 3 9.68 3 9 C2.34 9 1.68 9 1 9 C0.67 6.03 0.34 3.06 0 0 Z " fill="#228CA2" transform="translate(268,48)"/>
<path d="M0 0 C4.29 0 8.58 0 13 0 C10.00538277 1.99641149 8.51569716 2.6651717 5 3 C2.1875 2.0625 2.1875 2.0625 0 1 C0 0.67 0 0.34 0 0 Z " fill="#298BA1" transform="translate(313,53)"/>
<path d="M0 0 C1.32 0.66 2.64 1.32 4 2 C4.33 1.34 4.66 0.68 5 0 C4.125 4.75 4.125 4.75 3 7 C2.34 7 1.68 7 1 7 C0.34 5.02 -0.32 3.04 -1 1 C-0.67 0.67 -0.34 0.34 0 0 Z " fill="#198BA9" transform="translate(312,45)"/>
<path d="M0 0 C2.0625 0.4375 2.0625 0.4375 4 1 C3.67 2.32 3.34 3.64 3 5 C2.34 5 1.68 5 1 5 C1 6.65 1 8.3 1 10 C0.34 9.67 -0.32 9.34 -1 9 C-1.09765625 2.84765625 -1.09765625 2.84765625 -1 1 C-0.67 0.67 -0.34 0.34 0 0 Z " fill="#0A2933" transform="translate(146,96)"/>
<path d="M0 0 C1.32 1.32 2.64 2.64 4 4 C3.01 4.495 3.01 4.495 2 5 C1.53248212 7.35599235 1.53248212 7.35599235 1.375 10.0625 C1.30023438 10.98160156 1.22546875 11.90070313 1.1484375 12.84765625 C1.09945312 13.55792969 1.05046875 14.26820312 1 15 C0.67 15 0.34 15 0 15 C0 10.05 0 5.1 0 0 Z " fill="#82B3AD" transform="translate(76,93)"/>
<path d="M0 0 C4.21422242 2.88341534 5.76075855 5.04303419 7 10 C6.01 9.67 5.02 9.34 4 9 C3.67 8.01 3.34 7.02 3 6 C2.34 5.67 1.68 5.34 1 5 C0.375 2.4375 0.375 2.4375 0 0 Z " fill="#21879D" transform="translate(119,48)"/>
<path d="M0 0 C1.65 0 3.3 0 5 0 C5.33 0.66 5.66 1.32 6 2 C2.91190305 3.76462683 1.76687864 4 -2 4 C-1.34 2.68 -0.68 1.36 0 0 Z " fill="#128DB3" transform="translate(227,66)"/>
<path d="M0 0 C3 1 3 1 4.5625 3.875 C5.036875 4.90625 5.51125 5.9375 6 7 C6.99 8.485 6.99 8.485 8 10 C3.79236776 8.4972742 2.1972242 5.76667005 0 2 C0 1.34 0 0.68 0 0 Z " fill="#1F879A" transform="translate(197,57)"/>
<path d="M0 0 C3 3 3 3 4 6 C3.91538508 7.73324119 3.76395645 9.46392812 3.5625 11.1875 C3.46066406 12.08855469 3.35882813 12.98960938 3.25390625 13.91796875 C3.17011719 14.60503906 3.08632813 15.29210938 3 16 C2.67 16 2.34 16 2 16 C1.34 10.72 0.68 5.44 0 0 Z " fill="#74ADAB" transform="translate(35,28)"/>
<path d="M0 0 C0.33 0 0.66 0 1 0 C1 1.98 1 3.96 1 6 C2.98 6 4.96 6 7 6 C7 6.99 7 7.98 7 9 C4.69 8.34 2.38 7.68 0 7 C0 4.69 0 2.38 0 0 Z " fill="#278D9F" transform="translate(116,61)"/>
<path d="M0 0 C2.97 0.495 2.97 0.495 6 1 C5.34 1.66 4.68 2.32 4 3 C2.68 3 1.36 3 0 3 C0 3.66 0 4.32 0 5 C-0.66 5 -1.32 5 -2 5 C-1.34 3.35 -0.68 1.7 0 0 Z " fill="#168AA0" transform="translate(228,25)"/>
<path d="M0 0 C0.66 0 1.32 0 2 0 C2 1.65 2 3.3 2 5 C2.66 5.33 3.32 5.66 4 6 C2.02 6.99 2.02 6.99 0 8 C-0.66 7.01 -1.32 6.02 -2 5 C-1.34 4.67 -0.68 4.34 0 4 C0 2.68 0 1.36 0 0 Z " fill="#0C272E" transform="translate(339,112)"/>
<path d="M0 0 C-1.485 2.475 -1.485 2.475 -3 5 C-3.66 4.67 -4.32 4.34 -5 4 C-5.625 1.9375 -5.625 1.9375 -6 0 C-3 -1 -3 -1 0 0 Z " fill="#0A2A2F" transform="translate(274,99)"/>
<path d="M0 0 C2.125 0.375 2.125 0.375 4 1 C3.34 2.32 2.68 3.64 2 5 C0.68 4.01 -0.64 3.02 -2 2 C-1.34 1.34 -0.68 0.68 0 0 Z " fill="#152A35" transform="translate(329,92)"/>
<path d="M0 0 C0.33 0.99 0.66 1.98 1 3 C-0.32 4.32 -1.64 5.64 -3 7 C-3.99 6.67 -4.98 6.34 -6 6 C-4.02 4.02 -2.04 2.04 0 0 Z " fill="#7EB3AD" transform="translate(113,92)"/>
<path d="M0 0 C1.95582488 2.93373731 3.56224304 5.78216298 5 9 C4.67 9.66 4.34 10.32 4 11 C1.9656541 9.58480285 1.09589607 8.45017877 0.578125 6.01953125 C0.33726048 4.01823046 0.16467259 2.0090056 0 0 Z " fill="#22889C" transform="translate(342,58)"/>
<path d="M0 0 C1.32 0 2.64 0 4 0 C4 1.65 4 3.3 4 5 C2.66666667 5 1.33333333 5 0 5 C0 3.35 0 1.7 0 0 Z " fill="#132A32" transform="translate(247,92)"/>
</svg>
